<?xml version="1.0" encoding="UTF-8" standalone="no"?> <svg width="64" height="64" viewBox="0 0 64 64" fill="none" xmlns="http://www.w3.org/2000/svg">
<path d="M42 56C42 58.76 37.52 61 32 61C26.48 61 22 58.76 22 56C22 53.55 25.52 51.52 30.16 51.09C30.76 51.03 31.37 51 32 51C33.865 50.9838 35.7209 51.2605 37.5 51.82C40.21 52.72 42 54.26 42 56Z" fill="#FF9811"/>
<path d="M37.5 51.82C37.28 52.28 37.08 52.74 36.89 53.21C36.77 53.5 36.66 53.78 36.55 54.07L35.88 55.91C35.7368 56.2931 35.4801 56.6232 35.1441 56.8564C34.8081 57.0895 34.4089 57.2144 34 57.2144C33.5911 57.2144 33.1919 57.0895 32.8559 56.8564C32.5199 56.6232 32.2632 56.2931 32.12 55.91L31.45 54.07C31.34 53.78 31.23 53.5 31.12 53.21C30.83 52.49 30.51 51.78 30.16 51.09C30.76 51.03 31.37 51 32 51C33.865 50.9838 35.7209 51.2605 37.5 51.82V51.82Z" fill="#EE8700"/>
<path d="M52 23C52.0014 26.0158 51.3192 28.9926 50.0046 31.7067C48.69 34.4208 46.7772 36.8016 44.41 38.67C40.2053 41.9561 36.9251 46.2769 34.89 51.21C34.77 51.5 34.66 51.78 34.55 52.07L33.88 53.91C33.7368 54.2931 33.4801 54.6233 33.1441 54.8564C32.8081 55.0895 32.4089 55.2144 32 55.2144C31.5911 55.2144 31.1919 55.0895 30.8559 54.8564C30.5199 54.6233 30.2632 54.2931 30.12 53.91L29.45 52.07C29.34 51.78 29.23 51.5 29.12 51.21C27.1391 46.3122 23.8999 42.0243 19.73 38.78C17.2549 36.8635 15.2662 34.3908 13.9249 31.5624C12.5837 28.734 11.9276 25.6293 12.01 22.5C12.1726 17.2625 14.3844 12.2979 18.1695 8.67412C21.9546 5.05035 27.0107 3.05684 32.2504 3.12235C37.4901 3.18787 42.4948 5.30717 46.1881 9.02444C49.8815 12.7417 51.9684 17.76 52 23V23Z" fill="#FF5023"/>
<path d="M34 41C42.8366 41 50 33.8366 50 25C50 16.1634 42.8366 9 34 9C25.1634 9 18 16.1634 18 25C18 33.8366 25.1634 41 34 41Z" fill="#ED1C24"/>
<path d="M32 39C40.8366 39 48 31.8366 48 23C48 14.1634 40.8366 7 32 7C23.1634 7 16 14.1634 16 23C16 31.8366 23.1634 39 32 39Z" fill="#F1F2F2"/>
<path d="M42 19H38C37.4701 19.0016 36.9623 19.2128 36.5875 19.5875C36.2128 19.9623 36.0016 20.4701 36 21V23H28V17H24V31H28V27H40V31H44V21C43.9984 20.4701 43.7872 19.9623 43.4125 19.5875C43.0377 19.2128 42.5299 19.0016 42 19V19Z" fill="#E0E0E2"/>
<path d="M32 23C33.1046 23 34 22.1046 34 21C34 19.8954 33.1046 19 32 19C30.8954 19 30 19.8954 30 21C30 22.1046 30.8954 23 32 23Z" fill="#E0E0E2"/>
<path d="M42 21V25H38H26V21H30H34H42Z" fill="#FF9811"/>
<path d="M42 25H38V29H42V25Z" fill="#EE8700"/>
<path d="M42 21H34V19C34.0016 18.4701 34.2128 17.9623 34.5875 17.5875C34.9623 17.2128 35.4701 17.0016 36 17H40C40.5299 17.0016 41.0377 17.2128 41.4125 17.5875C41.7872 17.9623 41.9984 18.4701 42 19V21Z" fill="#EE8700"/>
<path d="M26 25V29H22V15H26V21V25Z" fill="#EE8700"/>
<path d="M30 21C31.1046 21 32 20.1046 32 19C32 17.8954 31.1046 17 30 17C28.8954 17 28 17.8954 28 19C28 20.1046 28.8954 21 30 21Z" fill="#EE8700"/>
<path d="M46.45 7.76002C44.3827 5.78767 41.9321 4.26128 39.2502 3.27559C36.5684 2.28989 33.7125 1.86593 30.86 2.03002C25.5918 2.33445 20.6295 4.60429 16.954 8.39084C13.2786 12.1774 11.1575 17.2051 11.01 22.48C10.9127 25.7672 11.5971 29.0306 13.007 32.0016C14.4169 34.9727 16.512 37.5666 19.12 39.57C22.8199 42.4514 25.7643 46.1886 27.7 50.46C23.65 51.37 21 53.51 21 56C21 59.36 25.83 62 32 62C38.17 62 43 59.36 43 56C43 53.51 40.35 51.37 36.3 50.46C38.3021 46.1508 41.2974 42.3776 45.04 39.45C47.3985 37.5826 49.328 35.2301 50.6978 32.5518C52.0676 29.8736 52.8457 26.9322 52.9794 23.9269C53.1131 20.9216 52.5993 17.9228 51.4728 15.1334C50.3462 12.3441 48.6333 9.8295 46.45 7.76002V7.76002ZM41 56C41 57.89 37.3 60 32 60C26.7 60 23 57.89 23 56C23 54.47 25.26 52.99 28.48 52.34C28.49 52.37 28.5 52.39 28.51 52.42L29.19 54.25C29.4015 54.8251 29.7843 55.3214 30.2868 55.672C30.7893 56.0226 31.3873 56.2106 32 56.2106C32.6127 56.2106 33.2107 56.0226 33.7132 55.672C34.2157 55.3214 34.5985 54.8251 34.81 54.25L35.49 52.42C35.5 52.39 35.51 52.37 35.52 52.34C38.69 52.98 41 54.49 41 56ZM43.79 37.88C39.1911 41.4761 35.6695 46.2674 33.61 51.73L32.94 53.56C32.8699 53.7531 32.7421 53.9199 32.5739 54.0377C32.4058 54.1556 32.2054 54.2188 32 54.2188C31.7946 54.2188 31.5942 54.1556 31.4261 54.0377C31.2579 53.9199 31.1301 53.7531 31.06 53.56L30.39 51.72C28.3871 46.2951 24.9058 41.539 20.34 37.99C17.9836 36.1755 16.0908 33.8284 14.8167 31.1411C13.5426 28.4538 12.9234 25.5028 13.01 22.53C13.1411 17.7585 15.0582 13.21 18.3821 9.78427C21.7061 6.35851 26.1946 4.30502 30.96 4.03002C31.31 4.01002 31.66 4.00002 32.01 4.00002C35.9538 3.99946 39.7998 5.22695 43.0141 7.51205C46.2284 9.79714 48.6514 13.0264 49.9466 16.7514C51.2418 20.4765 51.3449 24.5124 50.2416 28.2987C49.1383 32.085 46.8834 35.4338 43.79 37.88Z" fill="black"/>
<path d="M32 6C28.6377 6 25.3509 6.99703 22.5553 8.86502C19.7597 10.733 17.5807 13.388 16.2941 16.4944C15.0074 19.6007 14.6707 23.0189 15.3267 26.3165C15.9826 29.6142 17.6017 32.6433 19.9792 35.0208C22.3567 37.3983 25.3858 39.0174 28.6835 39.6734C31.9811 40.3293 35.3993 39.9926 38.5056 38.706C41.612 37.4193 44.267 35.2403 46.135 32.4447C48.003 29.6491 49 26.3623 49 23C48.9937 18.4933 47.2006 14.1729 44.0138 10.9862C40.8271 7.79945 36.5067 6.00635 32 6V6ZM32 38C29.0333 38 26.1332 37.1203 23.6665 35.472C21.1997 33.8238 19.2771 31.4811 18.1418 28.7403C17.0065 25.9994 16.7095 22.9834 17.2882 20.0736C17.867 17.1639 19.2956 14.4912 21.3934 12.3934C23.4912 10.2956 26.1639 8.867 29.0737 8.28822C31.9834 7.70944 34.9994 8.00649 37.7403 9.14181C40.4811 10.2771 42.8238 12.1997 44.4721 14.6664C46.1203 17.1332 47 20.0333 47 23C46.9952 26.9768 45.4134 30.7893 42.6013 33.6013C39.7893 36.4134 35.9768 37.9952 32 38Z" fill="black"/>
<path d="M40 16H36C35.2051 16.0024 34.4434 16.3192 33.8813 16.8813C33.3192 17.4434 33.0024 18.2051 33 19V20H32.82C32.9845 19.5469 33.0373 19.0608 32.9741 18.5829C32.9108 18.105 32.7334 17.6494 32.4567 17.2546C32.18 16.8599 31.8123 16.5376 31.3846 16.3151C30.957 16.0926 30.4821 15.9765 30 15.9765C29.5179 15.9765 29.043 16.0926 28.6154 16.3151C28.1877 16.5376 27.82 16.8599 27.5433 17.2546C27.2666 17.6494 27.0892 18.105 27.0259 18.5829C26.9627 19.0608 27.0155 19.5469 27.18 20H27V15C27 14.7348 26.8946 14.4804 26.7071 14.2929C26.5196 14.1054 26.2652 14 26 14H22C21.7348 14 21.4804 14.1054 21.2929 14.2929C21.1054 14.4804 21 14.7348 21 15V29C21 29.2652 21.1054 29.5196 21.2929 29.7071C21.4804 29.8946 21.7348 30 22 30H26C26.2652 30 26.5196 29.8946 26.7071 29.7071C26.8946 29.5196 27 29.2652 27 29V26H37V29C37 29.2652 37.1054 29.5196 37.2929 29.7071C37.4804 29.8946 37.7348 30 38 30H42C42.2652 30 42.5196 29.8946 42.7071 29.7071C42.8946 29.5196 43 29.2652 43 29V19C42.9976 18.2051 42.6808 17.4434 42.1187 16.8813C41.5566 16.3192 40.7949 16.0024 40 16ZM25 28H23V16H25V28ZM30 18C30.1978 18 30.3911 18.0586 30.5556 18.1685C30.72 18.2784 30.8482 18.4346 30.9239 18.6173C30.9996 18.8 31.0194 19.0011 30.9808 19.1951C30.9422 19.3891 30.847 19.5673 30.7071 19.7071C30.5673 19.847 30.3891 19.9422 30.1951 19.9808C30.0011 20.0194 29.8 19.9996 29.6173 19.9239C29.4346 19.8482 29.2784 19.72 29.1685 19.5556C29.0586 19.3911 29 19.1978 29 19C29 18.7348 29.1054 18.4804 29.2929 18.2929C29.4804 18.1054 29.7348 18 30 18ZM41 28H39V26H41V28ZM41 24H27V22H41V24ZM41 20H35V19C35 18.7348 35.1054 18.4804 35.2929 18.2929C35.4804 18.1054 35.7348 18 36 18H40C40.2652 18 40.5196 18.1054 40.7071 18.2929C40.8946 18.4804 41 18.7348 41 19V20Z" fill="black"/>
<path d="M31 42H29V44H31V42Z" fill="black"/>
<path d="M35 42H33V44H35V42Z" fill="black"/>
</svg>
